<svg xmlns="http://www.w3.org/2000/svg" width="26" height="24" viewBox="0 0 26 24" fill="currentColor">
<path fill-rule="evenodd" clip-rule="evenodd" d="M4.8004 13.562L7.82335 15.0523V18.6625L4.8004 17.1722V13.562ZM18.9369 0.5L26 11.907L12.7976 15.6633C10.522 12.0027 8.24371 8.342 5.97066 4.67602C4.24511 6.86498 2.51956 9.0566 0.794012 11.2456C1.07944 11.3518 1.37006 11.5245 1.66587 11.6334V17.6185L11.3549 22.6977V15.6899L12.7976 16.3115L24.5573 12.9696C24.5573 15.2303 24.5573 17.8549 24.5573 19.8765L17.2555 21.9539V16.3912L14.505 17.1828V22.7349L11.8168 23.5C8.3008 21.6059 4.73553 19.7836 1.2014 17.9267C1.2014 15.9263 1.2014 13.9897 1.2014 11.9894C0.801796 11.8406 0.402196 11.6254 0 11.4767L6.01737 3.84719L18.9369 0.5ZM22.4555 14.8876L19.5441 15.7324V18.7289L22.4555 17.8842V14.8903V14.8876Z" fill="black"/>
</svg>