<?xml version="1.0" standalone="no"?>
<!DOCTYPE svg PUBLIC "-//W3C//DTD SVG 20010904//EN"
 "http://www.w3.org/TR/2001/REC-SVG-20010904/DTD/svg10.dtd">
<svg version="1.0" xmlns="http://www.w3.org/2000/svg"
 width="984.000000pt" height="984.000000pt" viewBox="0 0 984.000000 984.000000"
 preserveAspectRatio="xMidYMid meet">
<metadata>
Created by potrace 1.14, written by Peter Selinger 2001-2017
</metadata>
<g transform="translate(0.000000,984.000000) scale(0.100000,-0.100000)"
fill="#000000" stroke="none">
<path d="M4118 8715 c-2 -1 -34 -5 -73 -9 -38 -3 -86 -9 -105 -12 -36 -5 -203
-50 -230 -61 -8 -3 -17 -7 -20 -8 -53 -18 -135 -58 -206 -100 -349 -207 -586
-558 -650 -965 -3 -19 -7 -46 -10 -60 -7 -40 -7 -241 1 -295 16 -120 32 -187
65 -288 148 -440 565 -813 985 -881 75 -13 93 -15 130 -21 22 -3 66 -7 97 -10
54 -4 113 -9 223 -21 324 -35 562 -145 782 -362 124 -121 157 -162 225 -276
254 -426 264 -933 26 -1363 -135 -244 -374 -467 -618 -574 -156 -70 -291 -97
-600 -124 -128 -11 -167 -16 -270 -37 -237 -46 -424 -142 -607 -312 -122 -113
-238 -265 -302 -396 -58 -118 -112 -286 -126 -387 -3 -24 -7 -60 -10 -80 -17
-127 -5 -301 31 -452 59 -252 176 -462 359 -647 196 -198 434 -323 720 -380
134 -27 376 -24 515 5 273 58 484 174 690 381 112 112 198 225 253 335 65 132
117 338 132 525 3 41 8 91 10 110 2 19 7 64 10 100 23 249 102 476 224 647 72
102 220 253 321 329 102 77 276 166 382 194 82 22 87 23 158 35 25 4 53 9 64
11 10 2 46 6 80 8 33 3 79 8 101 10 22 3 72 7 110 11 71 6 84 8 165 20 177 27
356 99 503 201 104 73 287 256 354 355 120 176 206 399 229 594 26 222 -2 459
-79 659 -86 226 -221 416 -405 570 -206 171 -424 262 -697 291 -33 4 -76 8
-95 10 -19 2 -64 7 -100 10 -126 10 -233 25 -295 39 -82 18 -123 29 -140 36
-11 5 -47 20 -81 33 -189 75 -415 259 -560 457 -111 151 -195 350 -218 515 -4
22 -8 51 -11 65 -5 29 -14 123 -30 305 -3 33 -7 71 -9 85 -3 14 -7 41 -10 60
-16 105 -57 262 -74 283 -5 7 -15 29 -21 49 -26 81 -144 247 -266 376 -49 52
-195 173 -218 181 -7 2 -25 14 -42 26 -37 26 -161 90 -195 100 -14 4 -38 13
-55 21 -25 11 -68 24 -130 40 -37 10 -123 24 -172 29 -62 7 -211 13 -215 10z"/>
<path d="M2729 6006 c-2 -2 -44 -6 -94 -10 -49 -3 -101 -8 -115 -11 -14 -3
-41 -8 -60 -11 -121 -19 -350 -113 -471 -194 -264 -177 -455 -429 -547 -720
-49 -152 -66 -271 -66 -435 3 -614 445 -1164 1049 -1303 99 -23 198 -35 290
-36 67 0 245 13 254 18 3 2 22 7 41 10 178 29 415 142 581 276 256 207 440
530 486 850 10 70 10 351 -1 410 -60 346 -227 636 -491 852 -130 106 -371 229
-498 254 -10 2 -26 5 -35 8 -9 3 -35 8 -57 12 -22 3 -43 8 -46 10 -3 2 -50 6
-105 10 -54 3 -102 8 -105 10 -3 2 -8 2 -10 0z"/>
</g>
</svg>
